# Blender v2.91.0 OBJ File: 'Object_Base.blend'
# www.blender.org
mtllib Sword.mtl
o Cube
v 1.000000 0.113168 -0.093624
v 1.000000 -0.113168 -0.093624
v 1.000000 0.113168 0.093624
v 1.000000 -0.113168 0.093624
v 0.000000 -0.152596 -0.126242
v 1.000000 0.000000 -0.159346
v 1.000000 0.000000 0.159346
v 0.000000 0.152596 0.126242
v 1.000000 0.148916 0.000000
v 0.000000 -0.152596 0.126242
v 0.000000 0.152596 -0.126242
v 1.000000 -0.148916 0.000000
v 0.000000 0.000000 -0.214863
v 1.000000 0.000000 0.000000
v 0.000000 -0.200799 0.000000
v 0.000000 0.000000 0.214863
v 0.000000 0.200799 0.000000
v 1.000000 -0.062452 -0.149957
v 1.000000 -0.062452 0.149957
v 1.000000 0.146029 0.039770
v 0.947430 -0.113168 0.093624
v 0.947430 0.113168 -0.093624
v 1.000000 -0.146029 -0.039770
v 0.947430 -0.113168 -0.093624
v 1.000000 0.062452 -0.149957
v 1.000000 0.062452 0.149957
v 0.947430 0.113168 0.093624
v 1.000000 0.146029 -0.039770
v 1.000000 -0.146029 0.039770
v 0.947430 0.000000 -0.159346
v 0.000000 -0.084211 -0.202203
v 0.000000 0.084211 -0.202203
v 1.000000 0.000000 0.110187
v 1.000000 0.000000 -0.110187
v 1.000000 -0.083577 0.000000
v 1.000000 0.083577 0.000000
v 0.000000 -0.196906 0.053626
v 0.000000 -0.196906 -0.053626
v 0.947430 -0.148916 0.000000
v 0.947430 0.000000 0.159346
v 0.000000 -0.084211 0.202203
v 0.000000 0.084211 0.202203
v 0.000000 0.196906 0.053626
v 0.000000 0.196906 -0.053626
v 0.947430 0.148916 0.000000
v 0.947430 0.146029 -0.039770
v 0.947430 0.146029 0.039770
v 0.947430 0.062452 0.149957
v 0.947430 -0.062452 0.149957
v 0.947430 -0.146029 -0.039770
v 0.947430 -0.062452 -0.149957
v 0.947430 0.062452 -0.149957
v 0.947430 -0.146029 0.039770
v -0.372225 0.000000 -0.214863
v -0.372225 -0.152596 -0.126242
v -1.288440 -0.096058 0.000000
v -2.783134 0.116009 0.000000
v -0.372225 -0.196906 0.053626
v -0.372225 -0.152596 0.126242
v -0.372225 -0.196906 -0.053626
v -0.372225 -0.200799 0.000000
v -0.372225 0.000000 0.214863
v -1.288440 0.000000 -0.214863
v -4.020762 0.000000 0.214863
v -0.372225 0.196906 0.053626
v -0.372225 0.152596 0.126242
v -0.372225 0.196906 -0.053626
v -0.372225 0.200799 0.000000
v -0.372225 0.152596 -0.126242
v 0.000000 -0.050377 0.653626
v 0.000000 -0.032015 0.651826
v 0.000000 -0.020104 0.652203
v 0.000000 0.015525 0.652203
v 0.000000 -0.000000 0.653391
v 0.000000 0.039693 0.653626
v 0.000000 0.022857 0.653298
v 0.000000 -0.054270 0.600000
v 0.000000 0.043586 0.600000
v -0.372225 -0.054270 0.600000
v -0.372225 -0.050377 0.653626
v -0.372225 0.039693 0.653626
v -0.372225 0.043586 0.600000
v -0.372225 -0.032015 0.651826
v -0.372225 0.015525 0.652203
v -0.372225 0.022857 0.653298
v -0.372225 -0.020104 0.652203
v -0.372225 -0.000000 0.653391
v 0.000000 -0.020104 -0.652203
v 0.000000 -0.032015 -0.651826
v 0.000000 0.015525 -0.652203
v 0.000000 -0.000000 -0.653391
v 0.000000 -0.050377 -0.653626
v 0.000000 -0.054270 -0.600000
v 0.000000 0.039693 -0.653626
v 0.000000 0.043586 -0.600000
v 0.000000 0.022857 -0.653298
v -0.372225 -0.054270 -0.600000
v -0.372225 -0.020104 -0.652203
v -0.372225 -0.032015 -0.651826
v -0.372225 0.039693 -0.653626
v -0.372225 0.022857 -0.653298
v -0.372225 0.043586 -0.600000
v -0.372225 0.015525 -0.652203
v -0.372225 -0.000000 -0.653391
v -0.372225 -0.050377 -0.653626
v -4.448222 0.004988 0.000000
v -2.035787 0.000000 -0.214863
v -0.917556 0.116009 0.000000
v -0.546673 0.000000 -0.214863
v -2.783134 0.058004 0.107432
v -2.783134 -0.048029 -0.107432
v -0.372225 -0.048029 -0.107432
v -0.546673 0.000000 0.214863
v -2.035787 -0.096058 0.000000
v -2.783134 0.058004 -0.107432
v -4.020762 -0.048029 -0.107432
v -0.917556 0.000000 0.214863
v -0.372225 0.116009 0.000000
v -2.783134 0.000000 0.214863
v -4.020762 0.000000 -0.214863
v -4.020762 -0.096058 0.000000
v -0.546673 0.116009 0.000000
v -4.020762 0.116009 0.000000
v -2.783134 -0.096058 0.000000
v -2.783134 0.000000 -0.214863
v -1.288440 0.116009 0.000000
v -0.372225 -0.096058 0.000000
v -0.546673 -0.096058 0.000000
v -1.288440 0.000000 0.214863
v -0.459449 0.000000 -0.214863
v -0.459449 0.000000 0.214863
v -4.020762 -0.048029 0.107432
v -3.401948 0.000000 -0.214863
v -2.035787 0.000000 0.214863
v -0.917556 0.000000 -0.214863
v -2.035787 0.116009 0.000000
v -3.401948 -0.096058 0.000000
v -3.401948 0.000000 0.214863
v -0.546673 0.058004 0.107432
v -0.917556 -0.096058 0.000000
v -4.234492 0.060498 0.000000
v -4.234492 -0.045535 0.000000
v -3.401948 0.116009 0.000000
v -2.783134 -0.048029 0.107432
v -4.234492 0.002494 -0.107432
v -0.372225 -0.048029 0.107432
v -1.288440 -0.048029 0.107432
v -0.459449 0.116009 0.000000
v -0.546673 -0.048029 -0.107432
v -0.546673 0.058004 -0.107432
v -0.372225 0.058004 -0.107432
v -4.234492 0.002494 0.107432
v -0.372225 0.058004 0.107432
v -1.288440 0.058004 -0.107432
v -1.288440 -0.048029 -0.107432
v -0.459449 -0.096058 0.000000
v -0.546673 -0.048029 0.107432
v -1.288440 0.058004 0.107432
v -4.020762 0.058004 0.107432
v -4.020762 0.058004 -0.107432
v -0.917556 0.058004 0.107432
v -0.917556 0.058004 -0.107432
v -0.459449 -0.048029 0.107432
v -0.459449 -0.048029 -0.107432
v -3.401948 0.058004 -0.107432
v -3.401948 -0.048029 -0.107432
v -0.459449 0.058004 -0.107432
v -0.459449 0.058004 0.107432
v -2.035787 -0.048029 -0.107432
v -2.035787 -0.048029 0.107432
v -3.401948 -0.048029 0.107432
v -0.917556 -0.048029 -0.107432
v -0.917556 -0.048029 0.107432
v -2.035787 0.058004 0.107432
v -2.035787 0.058004 -0.107432
v -3.401948 0.058004 0.107432
v 0.947430 -0.082113 -0.067932
v 0.000000 -0.110722 -0.091600
v 0.947430 0.082113 0.067932
v 0.000000 0.110722 0.091600
v 0.000000 -0.061102 -0.146716
v 0.000000 0.061102 -0.146716
v 0.000000 0.000000 -0.155902
v 0.000000 -0.142873 0.038910
v 0.000000 -0.110722 0.091600
v 0.000000 -0.142873 -0.038910
v 0.000000 -0.145697 0.000000
v 0.947430 -0.108051 0.000000
v 0.947430 0.000000 0.115620
v 0.000000 0.000000 0.155902
v 0.000000 -0.061102 0.146716
v 0.000000 0.061102 0.146716
v 0.000000 0.142873 0.038910
v 0.000000 0.142873 -0.038910
v 0.000000 0.145697 0.000000
v 0.947430 -0.082113 0.067932
v 0.000000 0.110722 -0.091600
v 0.947430 0.082113 -0.067932
v 0.947430 0.000000 -0.115620
v 0.947430 0.108051 0.000000
v 0.947430 0.105957 -0.028857
v 0.947430 0.105957 0.028857
v 0.947430 0.045314 0.108807
v 0.947430 -0.045314 0.108807
v 0.947430 -0.105957 -0.028857
v 0.947430 -0.045314 -0.108807
v 0.947430 0.045314 -0.108807
v 0.947430 -0.105957 0.028857
vt 0.312500 0.687500
vt 0.375000 0.687500
vt 0.375000 0.750000
vt 0.312500 0.750000
vt 0.562500 0.687500
vt 0.625000 0.687500
vt 0.625000 0.750000
vt 0.562500 0.750000
vt 0.562500 0.437500
vt 0.625000 0.437500
vt 0.625000 0.500000
vt 0.562500 0.500000
vt 0.437500 0.437500
vt 0.500000 0.437500
vt 0.500000 0.500000
vt 0.437500 0.500000
vt 0.437500 0.687500
vt 0.500000 0.687500
vt 0.500000 0.750000
vt 0.437500 0.750000
vt 0.562500 0.562500
vt 0.625000 0.562500
vt 0.625000 0.625000
vt 0.562500 0.625000
vt 0.312500 0.562500
vt 0.375000 0.562500
vt 0.375000 0.625000
vt 0.312500 0.625000
vt 0.375000 0.437500
vt 0.375000 0.437500
vt 0.437500 0.437500
vt 0.437500 0.375000
vt 0.500000 0.375000
vt 0.500000 0.375000
vt 0.437500 0.375000
vt 0.562500 0.375000
vt 0.562500 0.375000
vt 0.750000 0.500000
vt 0.750000 0.562500
vt 0.750000 0.562500
vt 0.750000 0.500000
vt 0.687500 0.562500
vt 0.687500 0.625000
vt 0.687500 0.500000
vt 0.562500 0.812500
vt 0.625000 0.812500
vt 0.625000 0.812500
vt 0.562500 0.812500
vt 0.687500 0.687500
vt 0.687500 0.750000
vt 0.375000 0.375000
vt 0.375000 0.375000
vt 0.750000 0.625000
vt 0.750000 0.687500
vt 0.750000 0.687500
vt 0.750000 0.625000
vt 0.500000 0.812500
vt 0.437500 0.812500
vt 0.375000 0.812500
vt 0.500000 0.812500
vt 0.625000 0.875000
vt 0.562500 0.875000
vt 0.562500 0.875000
vt 0.625000 0.875000
vt 0.312500 0.500000
vt 0.375000 0.500000
vt 0.500000 0.562500
vt 0.437500 0.562500
vt 0.437500 0.625000
vt 0.750000 0.750000
vt 0.750000 0.750000
vt 0.500000 0.875000
vt 0.437500 0.875000
vt 0.437500 0.875000
vt 0.500000 0.875000
vt 0.312500 0.687500
vt 0.312500 0.625000
vt 0.375000 0.875000
vt 0.375000 0.875000
vt 0.312500 0.750000
vt 0.250000 0.500000
vt 0.250000 0.562500
vt 0.250000 0.562500
vt 0.250000 0.500000
vt 0.562500 0.875000
vt 0.500000 0.875000
vt 0.750000 0.500000
vt 0.750000 0.562500
vt 0.000000 0.000000
vt 0.000000 0.000000
vt 0.000000 0.000000
vt 0.000000 0.000000
vt 0.000000 0.000000
vt 0.000000 0.000000
vt 0.000000 0.000000
vt 0.000000 0.000000
vt 0.750000 0.625000
vt 0.750000 0.687500
vt 0.437500 0.875000
vt 0.375000 0.875000
vt 0.000000 0.000000
vt 0.000000 0.000000
vt 0.000000 0.000000
vt 0.000000 0.000000
vt 0.625000 0.875000
vt 0.000000 0.000000
vt 0.250000 0.625000
vt 0.250000 0.625000
vt 0.250000 0.625000
vt 0.250000 0.625000
vt 0.250000 0.625000
vt 0.250000 0.625000
vt 0.000000 0.000000
vt 0.000000 0.000000
vt 0.000000 0.000000
vt 0.000000 0.000000
vt 0.000000 0.000000
vt 0.000000 0.000000
vt 0.000000 0.000000
vt 0.000000 0.000000
vt 0.000000 0.000000
vt 0.000000 0.000000
vt 0.000000 0.000000
vt 0.000000 0.000000
vt 0.000000 0.000000
vt 0.000000 0.000000
vt 0.000000 0.000000
vt 0.000000 0.000000
vt 0.000000 0.000000
vt 0.000000 0.000000
vt 0.000000 0.000000
vt 0.000000 0.000000
vt 0.000000 0.000000
vt 0.000000 0.000000
vt 0.000000 0.000000
vt 0.000000 0.000000
vt 0.000000 0.000000
vt 0.000000 0.000000
vt 0.000000 0.000000
vt 0.000000 0.000000
vt 0.000000 0.000000
vt 0.000000 0.000000
vt 0.000000 0.000000
vt 0.000000 0.000000
vt 0.000000 0.000000
vt 0.000000 0.000000
vt 0.000000 0.000000
vt 0.000000 0.000000
vt 0.000000 0.000000
vt 0.000000 0.000000
vt 0.000000 0.000000
vt 0.000000 0.000000
vt 0.500000 0.375000
vt 0.562500 0.375000
vt 0.250000 0.687500
vt 0.250000 0.750000
vt 0.250000 0.750000
vt 0.250000 0.687500
vt 0.750000 0.750000
vt 0.750000 0.687500
vt 0.750000 0.750000
vt 0.562500 0.875000
vt 0.500000 0.875000
vt 0.750000 0.625000
vt 0.437500 0.875000
vt 0.375000 0.875000
vt 0.625000 0.875000
vt 0.000000 0.000000
vt 0.000000 0.000000
vt 0.250000 0.687500
vt 0.000000 0.000000
vt 0.000000 0.000000
vt 0.000000 0.000000
vt 0.250000 0.750000
vt 0.000000 0.000000
vt 0.750000 0.625000
vt 0.625000 0.375000
vt 0.562500 0.375000
vt 0.625000 0.375000
vt 0.437500 0.375000
vt 0.437500 0.375000
vt 0.500000 0.375000
vt 0.750000 0.625000
vt 0.750000 0.562500
vt 0.750000 0.625000
vt 0.250000 0.562500
vt 0.250000 0.500000
vt 0.750000 0.500000
vt 0.375000 0.375000
vt 0.375000 0.375000
vt 0.000000 0.000000
vt 0.000000 0.000000
vt 0.625000 0.375000
vt 0.000000 0.000000
vt 0.000000 0.000000
vt 0.000000 0.000000
vt 0.000000 0.000000
vt 0.000000 0.000000
vt 0.000000 0.000000
vt 0.000000 0.000000
vt 0.000000 0.000000
vt 0.000000 0.000000
vt 0.000000 0.000000
vt 0.000000 0.000000
vt 0.000000 0.000000
vt 0.000000 0.000000
vt 0.000000 0.000000
vt 0.000000 0.000000
vt 0.000000 0.000000
vt 0.000000 0.000000
vt 0.000000 0.000000
vt 0.000000 0.000000
vt 0.000000 0.000000
vt 0.000000 0.000000
vt 0.000000 0.000000
vt 0.000000 0.000000
vt 0.000000 0.000000
vt 0.000000 0.000000
vt 0.000000 0.000000
vt 0.000000 0.000000
vt 0.000000 0.000000
vt 0.000000 0.000000
vt 0.000000 0.000000
vt 0.000000 0.000000
vt 0.000000 0.000000
vt 0.000000 0.000000
vt 0.000000 0.000000
vt 0.000000 0.000000
vt 0.000000 0.000000
vt 0.000000 0.000000
vt 0.000000 0.000000
vt 0.000000 0.000000
vt 0.000000 0.000000
vt 0.000000 0.000000
vt 0.000000 0.000000
vt 0.000000 0.000000
vt 0.000000 0.000000
vt 0.437500 0.812500
vt 0.687500 0.687500
vt 0.687500 0.750000
vt 0.687500 0.562500
vt 0.687500 0.625000
vt 0.687500 0.500000
vt 0.375000 0.812500
vt 0.250000 0.562500
vt 0.312500 0.562500
vt 0.250000 0.625000
vt 0.250000 0.500000
vt 0.312500 0.500000
vt 0.500000 0.437500
vt 0.562500 0.437500
vt 0.625000 0.375000
vt 0.625000 0.437500
vt 0.250000 0.687500
vt 0.250000 0.750000
vn 0.0000 -0.8536 0.5209
vn 1.0000 0.0000 0.0000
vn 0.0000 0.7432 -0.6691
vn 0.0000 -0.1487 -0.9889
vn 0.0000 -0.9974 -0.0724
vn -1.0000 0.0000 0.0000
vn 0.0000 0.9974 -0.0724
vn 0.0000 0.8536 -0.5209
vn 0.0000 0.8536 0.5209
vn 0.0000 0.9974 0.0724
vn 0.0000 0.1487 0.9889
vn 0.0000 0.7432 0.6691
vn 0.0000 -0.7432 0.6691
vn 0.0000 -0.1487 0.9889
vn 0.0000 -0.8536 -0.5209
vn 0.0000 -0.7432 -0.6691
vn 0.0000 0.1487 -0.9889
vn 0.0000 -0.9974 0.0724
vn 0.0000 -0.9715 0.2372
vn 0.0000 -0.9715 -0.2372
vn 0.0000 0.8799 0.4751
vn 0.0000 0.8799 -0.4751
vn 0.0000 -0.9129 0.4081
vn 0.0000 -0.9129 -0.4081
vn -0.2228 0.8578 -0.4632
vn 0.0000 0.0976 0.9952
vn 0.0000 -0.0195 0.9998
vn 0.0000 0.0763 0.9971
vn 0.0000 -0.0316 0.9995
vn 0.0000 -0.1477 0.9890
vn 0.0000 -0.0590 0.9983
vn 0.0000 0.9673 0.2535
vn 0.0000 -0.1477 -0.9890
vn 0.0000 -0.0590 -0.9983
vn 0.0000 0.0976 -0.9952
vn 0.0000 -0.0195 -0.9998
vn 0.0000 0.0763 -0.9971
vn 0.0000 -0.0316 -0.9995
vn 0.0000 0.9673 -0.2535
vn -0.2109 -0.8924 0.3990
vn -0.2228 0.8578 0.4632
vn -0.2109 -0.8924 -0.3990
vn 0.0420 -0.1485 0.9880
vn 0.0391 0.7426 0.6686
vn 0.0388 0.8530 0.5205
vn 0.0396 0.9966 -0.0723
vn 0.0388 0.8530 -0.5205
vn 0.0396 0.9966 0.0723
vn 0.0420 0.1485 0.9880
vn 0.0391 -0.7426 0.6686
vn 0.0396 -0.9966 -0.0723
vn 0.0388 -0.8530 -0.5205
vn 0.0391 -0.7426 -0.6686
vn 0.0420 -0.1485 -0.9880
vn 0.0420 0.1485 -0.9880
vn 0.0391 0.7426 -0.6686
vn 0.0388 -0.8530 0.5205
vn 0.0396 -0.9966 0.0723
usemtl Material
s off
f 53/1/1 29/2/1 4/3/1 21/4/1
f 14/5/2 20/6/2 3/7/2 26/8/2
f 52/9/3 22/10/3 1/11/3 25/12/3
f 51/13/4 30/14/4 6/15/4 18/16/4
f 14/17/2 33/18/2 7/19/2 19/20/2
f 14/21/2 28/22/2 9/23/2 36/24/2
f 50/25/5 23/26/5 12/27/5 39/28/5
f 51/13/6 24/29/6 177/30/6 206/31/6
f 31/32/2 13/33/2 183/34/2 181/35/2
f 13/33/2 32/36/2 182/37/2 183/34/2
f 11/38/2 44/39/2 194/40/2 197/41/2
f 28/22/7 46/42/7 45/43/7 9/23/7
f 1/11/8 22/44/8 46/42/8 28/22/8
f 48/45/6 27/46/6 179/47/6 203/48/6
f 20/6/9 47/49/9 27/50/9 3/7/9
f 9/23/10 45/43/10 47/49/10 20/6/10
f 5/51/2 31/32/2 181/35/2 178/52/2
f 17/53/2 43/54/2 193/55/2 195/56/2
f 7/19/11 26/8/11 48/45/11 40/57/11
f 26/8/12 3/7/12 27/46/12 48/45/12
f 44/39/2 17/53/2 195/56/2 194/40/2
f 4/3/13 19/20/13 49/58/13 21/59/13
f 19/20/14 7/19/14 40/57/14 49/58/14
f 40/57/6 48/45/6 203/48/6 189/60/6
f 8/61/2 42/62/2 192/63/2 180/64/2
f 24/65/15 2/66/15 23/26/15 50/25/15
f 6/15/2 25/12/2 14/21/2 34/67/2
f 25/12/2 1/11/2 28/22/2 14/21/2
f 23/26/2 14/68/2 35/69/2 12/27/2
f 2/66/2 18/16/2 14/68/2 23/26/2
f 18/16/2 6/15/2 34/67/2 14/68/2
f 29/2/2 14/17/2 19/20/2 4/3/2
f 12/27/2 35/69/2 14/17/2 29/2/2
f 24/29/16 51/13/16 18/16/16 2/66/16
f 43/54/2 8/70/2 180/71/2 193/55/2
f 16/72/2 41/73/2 191/74/2 190/75/2
f 30/14/17 52/9/17 25/12/17 6/15/17
f 42/62/2 16/72/2 190/75/2 192/63/2
f 39/28/6 53/1/6 208/76/6 188/77/6
f 33/18/2 14/5/2 26/8/2 7/19/2
f 36/24/2 9/23/2 20/6/2 14/5/2
f 41/73/2 10/78/2 185/79/2 191/74/2
f 53/1/6 21/4/6 196/80/6 208/76/6
f 39/28/18 12/27/18 29/2/18 53/1/18
f 5/81/2 38/82/2 92/83/2 89/84/2
f 16/72/2 42/62/2 73/85/2 74/86/2
f 44/39/2 11/38/2 96/87/2 94/88/2
f 60/89/6 55/90/6 99/91/6 105/92/6
f 61/93/2 60/89/2 105/92/2 97/94/2
f 58/95/6 59/96/6 61/93/6
f 43/54/6 17/53/6 78/97/6 75/98/6
f 10/78/2 41/73/2 72/99/2 71/100/2
f 55/90/6 54/101/6 98/102/6 99/91/6
f 58/95/2 61/93/2 79/103/2 80/104/2
f 42/62/2 8/61/2 76/105/2 73/85/2
f 59/96/6 58/95/6 80/104/6 83/106/6
f 61/107/19 15/108/19 77/109/19 79/110/19
f 41/73/2 16/72/2 74/86/2 72/99/2
f 15/108/20 61/107/20 97/111/20 93/112/20
f 68/113/6 67/114/6 69/115/6
f 60/89/6 61/93/6 55/90/6
f 176/116/21 143/117/21 123/118/21 159/119/21
f 175/120/22 107/121/22 125/122/22 115/123/22
f 174/124/21 136/125/21 57/126/21 110/127/21
f 173/128/23 117/129/23 129/130/23 147/131/23
f 172/132/24 140/133/24 56/134/24 155/135/24
f 171/136/23 138/137/23 64/138/23 132/139/23
f 65/140/6 68/113/6 66/141/6
f 61/93/6 59/96/6 62/142/6 146/143/6 127/144/6
f 170/145/23 134/146/23 119/147/23 144/148/23
f 123/118/25 160/149/25 141/150/25
f 54/101/6 69/115/6 101/151/6 103/152/6
f 32/36/2 13/33/2 91/153/2 90/154/2
f 70/155/26 71/156/26 83/157/26 80/158/26
f 76/159/27 75/98/27 81/160/27 85/161/27
f 77/109/18 70/155/18 80/158/18 79/110/18
f 74/86/28 73/85/28 84/162/28 87/163/28
f 75/98/10 78/97/10 82/164/10 81/160/10
f 71/100/29 72/99/29 86/165/29 83/166/29
f 73/85/30 76/105/30 85/167/30 84/162/30
f 72/99/31 74/86/31 87/163/31 86/165/31
f 62/142/6 59/96/6 83/106/6 86/168/6
f 62/142/6 86/168/6 87/169/6
f 15/108/6 37/170/6 70/155/6 77/109/6
f 8/70/2 43/54/2 75/98/2 76/159/2
f 62/142/6 87/169/6 84/171/6
f 66/141/6 62/142/6 84/171/6 85/172/6
f 65/140/6 66/141/6 85/172/6 81/173/6
f 37/170/2 10/174/2 71/156/2 70/155/2
f 68/113/2 65/140/2 81/173/2 82/175/2
f 17/53/32 68/176/32 82/164/32 78/97/32
f 96/177/33 90/154/33 103/178/33 101/179/33
f 91/153/34 88/180/34 98/181/34 104/182/34
f 95/183/7 94/88/7 100/184/7 102/185/7
f 89/84/35 92/83/35 105/186/35 99/187/35
f 94/88/36 96/87/36 101/188/36 100/184/36
f 90/154/37 91/153/37 104/182/37 103/178/37
f 92/83/5 93/112/5 97/111/5 105/186/5
f 88/180/38 89/189/38 99/190/38 98/181/38
f 17/53/6 44/39/6 94/88/6 95/183/6
f 13/33/2 31/32/2 88/180/2 91/153/2
f 67/114/2 68/113/2 102/191/2 100/192/2
f 11/193/2 32/36/2 90/154/2 96/177/2
f 38/82/6 15/108/6 93/112/6 92/83/6
f 69/115/6 67/114/6 100/192/6 101/151/6
f 31/32/2 5/51/2 89/189/2 88/180/2
f 68/176/39 17/53/39 95/183/39 102/185/39
f 54/101/6 104/194/6 98/102/6
f 54/101/6 103/152/6 104/194/6
f 121/195/40 132/139/40 142/196/40
f 64/138/41 159/119/41 152/197/41
f 169/198/24 114/199/24 124/200/24 111/201/24
f 168/202/21 148/203/21 122/204/21 139/205/21
f 167/206/22 130/207/22 109/208/22 150/209/22
f 68/113/6 69/115/6 54/101/6 151/210/6 118/211/6
f 66/141/6 68/113/6 118/211/6 153/212/6 62/142/6
f 166/213/24 137/214/24 121/195/24 116/215/24
f 165/216/22 133/217/22 120/218/22 160/149/22
f 164/219/24 156/220/24 128/221/24 149/222/24
f 163/223/23 131/224/23 113/225/23 157/226/23
f 162/227/22 135/228/22 63/229/22 154/230/22
f 161/231/21 108/232/21 126/233/21 158/234/21
f 120/218/42 116/215/42 145/235/42
f 55/90/6 61/93/6 127/144/6 112/236/6 54/101/6
f 145/235/42 142/196/42 106/237/42
f 145/235/42 116/215/42 142/196/42
f 116/215/42 121/195/42 142/196/42
f 117/129/21 161/231/21 158/234/21 129/130/21
f 113/225/21 139/205/21 161/231/21 117/129/21
f 139/205/21 122/204/21 108/232/21 161/231/21
f 108/232/22 162/227/22 154/230/22 126/233/22
f 122/204/22 150/209/22 162/227/22 108/232/22
f 150/209/22 109/208/22 135/228/22 162/227/22
f 156/220/23 163/223/23 157/226/23 128/221/23
f 127/144/23 146/143/23 163/223/23 156/220/23
f 146/143/23 62/142/23 131/224/23 163/223/23
f 130/207/24 164/219/24 149/222/24 109/208/24
f 54/101/24 112/236/24 164/219/24 130/207/24
f 112/236/24 127/144/24 156/220/24 164/219/24
f 143/117/22 165/216/22 160/149/22 123/118/22
f 57/126/22 115/123/22 165/216/22 143/117/22
f 115/123/22 125/122/22 133/217/22 165/216/22
f 133/217/24 166/213/24 116/215/24 120/218/24
f 125/122/24 111/201/24 166/213/24 133/217/24
f 111/201/24 124/200/24 137/214/24 166/213/24
f 148/203/22 167/206/22 150/209/22 122/204/22
f 118/211/22 151/210/22 167/206/22 148/203/22
f 151/210/22 54/101/22 130/207/22 167/206/22
f 131/224/21 168/202/21 139/205/21 113/225/21
f 62/142/21 153/212/21 168/202/21 131/224/21
f 153/212/21 118/211/21 148/203/21 168/202/21
f 107/121/24 169/198/24 111/201/24 125/122/24
f 63/229/24 155/135/24 169/198/24 107/121/24
f 155/135/24 56/134/24 114/199/24 169/198/24
f 152/197/41 141/150/41 106/237/41
f 152/197/41 159/119/41 141/150/41
f 159/119/41 123/118/41 141/150/41
f 142/196/40 152/197/40 106/237/40
f 142/196/40 132/139/40 152/197/40
f 132/139/40 64/138/40 152/197/40
f 141/150/25 145/235/25 106/237/25
f 141/150/25 160/149/25 145/235/25
f 160/149/25 120/218/25 145/235/25
f 114/199/23 170/145/23 144/148/23 124/200/23
f 56/134/23 147/131/23 170/145/23 114/199/23
f 147/131/23 129/130/23 134/146/23 170/145/23
f 137/214/23 171/136/23 132/139/23 121/195/23
f 124/200/23 144/148/23 171/136/23 137/214/23
f 144/148/23 119/147/23 138/137/23 171/136/23
f 135/228/24 172/132/24 155/135/24 63/229/24
f 109/208/24 149/222/24 172/132/24 135/228/24
f 149/222/24 128/221/24 140/133/24 172/132/24
f 140/133/23 173/128/23 147/131/23 56/134/23
f 128/221/23 157/226/23 173/128/23 140/133/23
f 157/226/23 113/225/23 117/129/23 173/128/23
f 134/146/21 174/124/21 110/127/21 119/147/21
f 129/130/21 158/234/21 174/124/21 134/146/21
f 158/234/21 126/233/21 136/125/21 174/124/21
f 136/125/22 175/120/22 115/123/22 57/126/22
f 126/233/22 154/230/22 175/120/22 136/125/22
f 154/230/22 63/229/22 107/121/22 175/120/22
f 138/137/21 176/116/21 159/119/21 64/138/21
f 119/147/21 110/127/21 176/116/21 138/137/21
f 110/127/21 57/126/21 143/117/21 176/116/21
f 204/238/43 189/60/43 190/75/43 191/74/43
f 203/48/44 179/47/44 180/64/44 192/63/44
f 202/239/45 193/55/45 180/71/45 179/240/45
f 201/241/46 194/40/46 195/56/46 200/242/46
f 198/243/47 197/41/47 194/40/47 201/241/47
f 200/242/48 195/56/48 193/55/48 202/239/48
f 189/60/49 203/48/49 192/63/49 190/75/49
f 196/244/50 204/238/50 191/74/50 185/79/50
f 186/245/51 205/246/51 188/77/51 187/247/51
f 178/248/52 177/249/52 205/246/52 186/245/52
f 178/52/53 181/35/53 206/31/53 177/30/53
f 181/35/54 183/34/54 199/250/54 206/31/54
f 183/34/55 182/37/55 207/251/55 199/250/55
f 182/37/56 197/252/56 198/253/56 207/251/56
f 184/254/57 208/76/57 196/80/57 185/255/57
f 187/247/58 188/77/58 208/76/58 184/254/58
f 32/36/2 11/193/2 197/252/2 182/37/2
f 45/43/6 46/42/6 201/241/6 200/242/6
f 30/14/6 51/13/6 206/31/6 199/250/6
f 21/59/6 49/58/6 204/238/6 196/244/6
f 46/42/6 22/44/6 198/243/6 201/241/6
f 49/58/6 40/57/6 189/60/6 204/238/6
f 50/25/6 39/28/6 188/77/6 205/246/6
f 52/9/6 30/14/6 199/250/6 207/251/6
f 10/174/2 37/170/2 184/254/2 185/255/2
f 24/65/6 50/25/6 205/246/6 177/249/6
f 27/50/6 47/49/6 202/239/6 179/240/6
f 22/10/6 52/9/6 207/251/6 198/253/6
f 15/108/2 38/82/2 186/245/2 187/247/2
f 37/170/2 15/108/2 187/247/2 184/254/2
f 47/49/6 45/43/6 200/242/6 202/239/6
f 38/82/2 5/81/2 178/248/2 186/245/2
